<svg width="56" height="56" viewBox="0 0 56 56" fill="none" xmlns="http://www.w3.org/2000/svg">
<g id="basil:file-solid">
<path id="Vector" d="M32.6666 5.25C32.8213 5.25 32.9697 5.31146 33.0791 5.42085C33.1885 5.53025 33.25 5.67862 33.25 5.83333V19.0097C33.25 19.9757 34.034 20.7597 35 20.7597H45.5C45.6547 20.7597 45.803 20.8211 45.9124 20.9305C46.0218 21.0399 46.0833 21.1883 46.0833 21.343V44.3333C46.0833 46.0351 45.4073 47.6672 44.2039 48.8706C43.0005 50.074 41.3684 50.75 39.6666 50.75H16.3333C14.6315 50.75 12.9994 50.074 11.796 48.8706C10.5927 47.6672 9.91663 46.0351 9.91663 44.3333V11.6667C9.91663 9.96486 10.5927 8.33276 11.796 7.1294C12.9994 5.92604 14.6315 5.25 16.3333 5.25H32.6666Z" fill="#FFFAFA"/>
<path id="Vector_2" d="M37.534 6.15527C37.2003 5.88694 36.75 6.15994 36.75 6.58927V16.6763C36.75 16.9983 37.0113 17.2596 37.3333 17.2596H45.0287C45.304 17.2596 45.4767 16.9703 45.318 16.7463L38.2853 6.95327C38.0719 6.65468 37.8192 6.38626 37.534 6.15527Z" fill="#FFFAFA"/>
</g>
</svg>
