<svg width="56" height="56" viewBox="0 0 56 56" fill="none" xmlns="http://www.w3.org/2000/svg">
<g id="material-symbols:print">
<path id="Vector" d="M41.9956 16.3276H13.9956V6.99426H41.9956V16.3276ZM41.9956 29.1609C42.6567 29.1609 43.2112 28.9369 43.6592 28.4889C44.1072 28.0409 44.3305 27.4872 44.3289 26.8276C44.3273 26.168 44.1033 25.6143 43.6569 25.1663C43.2105 24.7183 42.6567 24.4943 41.9956 24.4943C41.3345 24.4943 40.7807 24.7183 40.3342 25.1663C39.8878 25.6143 39.6638 26.168 39.6622 26.8276C39.6607 27.4872 39.8847 28.0417 40.3342 28.4913C40.7838 28.9408 41.3376 29.164 41.9956 29.1609ZM37.3289 44.3276V34.9943H18.6622V44.3276H37.3289ZM41.9956 48.9943H13.9956V39.6609H4.66223V25.6609C4.66223 23.6776 5.34279 22.0155 6.7039 20.6746C8.06501 19.3337 9.71779 18.6625 11.6622 18.6609H44.3289C46.3122 18.6609 47.9751 19.3322 49.3176 20.6746C50.66 22.017 51.3305 23.6792 51.3289 25.6609V39.6609H41.9956V48.9943Z" fill="#FFFAFA"/>
</g>
</svg>
