<svg width="56" height="56" viewBox="0 0 56 56" fill="none" xmlns="http://www.w3.org/2000/svg">
<g id="solar:danger-bold">
<path id="Vector" fill-rule="evenodd" clip-rule="evenodd" d="M18.3003 8.87129C23.0347 6.06896 25.4007 4.66663 28 4.66663C30.5993 4.66663 32.9653 6.06663 37.6997 8.87129L39.3003 9.81863C44.0347 12.6233 46.4007 14.0256 47.7003 16.3333C49 18.6433 49 21.4433 49 27.0526V28.9473C49 34.5543 49 37.359 47.7003 39.6666C46.4007 41.9766 44.0347 43.3766 39.3003 46.179L37.6997 47.1286C32.9653 49.931 30.5993 51.3333 28 51.3333C25.4007 51.3333 23.0347 49.9333 18.3003 47.1286L16.6997 46.179C11.9653 43.379 9.59933 41.9743 8.29967 39.6666C7 37.3566 7 34.5566 7 28.9473V27.0526C7 21.4433 7 18.641 8.29967 16.3333C9.59933 14.0233 11.9653 12.6233 16.6997 9.81863L18.3003 8.87129ZM30.3333 37.3333C30.3333 37.9521 30.0875 38.5456 29.6499 38.9832C29.2123 39.4208 28.6188 39.6666 28 39.6666C27.3812 39.6666 26.7877 39.4208 26.3501 38.9832C25.9125 38.5456 25.6667 37.9521 25.6667 37.3333C25.6667 36.7145 25.9125 36.121 26.3501 35.6834C26.7877 35.2458 27.3812 35 28 35C28.6188 35 29.2123 35.2458 29.6499 35.6834C30.0875 36.121 30.3333 36.7145 30.3333 37.3333ZM28 14.5833C28.4641 14.5833 28.9092 14.7677 29.2374 15.0959C29.5656 15.424 29.75 15.8692 29.75 16.3333V30.3333C29.75 30.7974 29.5656 31.2425 29.2374 31.5707C28.9092 31.8989 28.4641 32.0833 28 32.0833C27.5359 32.0833 27.0908 31.8989 26.7626 31.5707C26.4344 31.2425 26.25 30.7974 26.25 30.3333V16.3333C26.25 15.8692 26.4344 15.424 26.7626 15.0959C27.0908 14.7677 27.5359 14.5833 28 14.5833Z" fill="#FFFAFA"/>
</g>
</svg>
